<svg width="21" height="22" viewBox="0 0 21 22" fill="none" xmlns="http://www.w3.org/2000/svg">
<path d="M10.5 0.5C4.6935 0.5 0 5.1935 0 11C0 16.8065 4.6935 21.5 10.5 21.5C16.3065 21.5 21 16.8065 21 11C21 5.1935 16.3065 0.5 10.5 0.5ZM10.5 19.4C5.8695 19.4 2.1 15.6305 2.1 11C2.1 6.3695 5.8695 2.6 10.5 2.6C15.1305 2.6 18.9 6.3695 18.9 11C18.9 15.6305 15.1305 19.4 10.5 19.4ZM14.2695 5.75L10.5 9.5195L6.7305 5.75L5.25 7.2305L9.0195 11L5.25 14.7695L6.7305 16.25L10.5 12.4805L14.2695 16.25L15.75 14.7695L11.9805 11L15.75 7.2305L14.2695 5.75Z" fill="#E11818"/>
</svg>
