<svg width="24" height="18" viewBox="0 0 24 18" fill="none" xmlns="http://www.w3.org/2000/svg">
<path d="M20.4 2.99998C20.4 1.67998 19.32 0.599976 18 0.599976H14.4V2.99998H18V6.17998L13.824 11.4H9.6V5.39998H4.8C2.148 5.39998 0 7.54798 0 10.2V13.8H2.4C2.4 15.792 4.008 17.4 6 17.4C7.992 17.4 9.6 15.792 9.6 13.8H14.976L20.4 7.01998V2.99998ZM2.4 11.4V10.2C2.4 8.87998 3.48 7.79998 4.8 7.79998H7.2V11.4H2.4ZM6 15C5.34 15 4.8 14.46 4.8 13.8H7.2C7.2 14.46 6.66 15 6 15Z" fill="#62960E"/>
<path d="M3.59998 1.79999H9.59998V4.19999H3.59998V1.79999ZM20.4 10.2C18.408 10.2 16.8 11.808 16.8 13.8C16.8 15.792 18.408 17.4 20.4 17.4C22.392 17.4 24 15.792 24 13.8C24 11.808 22.392 10.2 20.4 10.2ZM20.4 15C19.74 15 19.2 14.46 19.2 13.8C19.2 13.14 19.74 12.6 20.4 12.6C21.06 12.6 21.6 13.14 21.6 13.8C21.6 14.46 21.06 15 20.4 15Z" fill="#62960E"/>
</svg>
