<svg width="25" height="18" viewBox="0 0 25 18" fill="none" xmlns="http://www.w3.org/2000/svg">
<path d="M8.75 9C11.1625 9 13.125 6.98143 13.125 4.5C13.125 2.01857 11.1625 0 8.75 0C6.3375 0 4.375 2.01857 4.375 4.5C4.375 6.98143 6.3375 9 8.75 9ZM8.75 2.57143C9.7875 2.57143 10.625 3.43286 10.625 4.5C10.625 5.56714 9.7875 6.42857 8.75 6.42857C7.7125 6.42857 6.875 5.56714 6.875 4.5C6.875 3.43286 7.7125 2.57143 8.75 2.57143ZM8.75 11.25C5.825 11.25 0 12.7543 0 15.75V16.7143C0 17.4214 0.5625 18 1.25 18H16.25C16.9375 18 17.5 17.4214 17.5 16.7143V15.75C17.5 12.7543 11.675 11.25 8.75 11.25ZM2.925 15.4286C3.975 14.6829 6.5125 13.8214 8.75 13.8214C10.9875 13.8214 13.525 14.6829 14.575 15.4286H2.925ZM17.55 11.3271C19 12.4071 20 13.8471 20 15.75V18H23.75C24.4375 18 25 17.4214 25 16.7143V15.75C25 13.1529 20.625 11.6743 17.55 11.3271ZM16.25 9C18.6625 9 20.625 6.98143 20.625 4.5C20.625 2.01857 18.6625 0 16.25 0C15.575 0 14.95 0.167143 14.375 0.45C15.1625 1.59429 15.625 2.99571 15.625 4.5C15.625 6.00429 15.1625 7.40571 14.375 8.55C14.95 8.83286 15.575 9 16.25 9Z" fill="#62960E"/>
</svg>
