<svg width="18" height="24" viewBox="0 0 18 24" fill="none" xmlns="http://www.w3.org/2000/svg">
<path d="M9 12C7.7625 12 6.75 10.965 6.75 9.7C6.75 8.435 7.7625 7.4 9 7.4C10.2375 7.4 11.25 8.435 11.25 9.7C11.25 10.965 10.2375 12 9 12ZM15.75 9.93C15.75 5.7555 12.7688 2.8 9 2.8C5.23125 2.8 2.25 5.7555 2.25 9.93C2.25 12.621 4.44375 16.186 9 20.441C13.5563 16.186 15.75 12.621 15.75 9.93ZM9 0.5C13.725 0.5 18 4.203 18 9.93C18 13.748 14.9963 18.2675 9 23.5C3.00375 18.2675 0 13.748 0 9.93C0 4.203 4.275 0.5 9 0.5Z" fill="#62960E"/>
</svg>
