<svg width="28" height="28" viewBox="0 0 28 28" fill="none" xmlns="http://www.w3.org/2000/svg">
<path d="M19.8333 11.6667C19.95 11.6667 20.055 11.6784 20.16 11.6784L3.5 4.66675V11.6667L12.8333 14.0001L3.5 16.3334V23.3334L11.6667 19.8917V19.8334C11.6667 15.3184 15.3183 11.6667 19.8333 11.6667Z" fill="#62960E"/>
<path d="M19.8333 14C16.6133 14 14 16.6133 14 19.8333C14 23.0533 16.6133 25.6667 19.8333 25.6667C23.0533 25.6667 25.6667 23.0533 25.6667 19.8333C25.6667 16.6133 23.0533 14 19.8333 14ZM19.8333 23.3333L16.3333 19.8333H19.25V16.3333H20.4167V19.8333H23.3333L19.8333 23.3333Z" fill="#62960E"/>
</svg>
